<svg xmlns="http://www.w3.org/2000/svg" viewBox="0 0 200 200" width="150" height="150">
  <g fill="#A45535">
    <!-- Toes -->
    <ellipse cx="45" cy="85" rx="14" ry="22" transform="rotate(-30 45 85)" />
    <ellipse cx="80" cy="55" rx="16" ry="24" transform="rotate(-10 80 55)" />
    <ellipse cx="120" cy="55" rx="16" ry="24" transform="rotate(10 120 55)" />
    <ellipse cx="155" cy="85" rx="14" ry="22" transform="rotate(30 155 85)" />

    <!-- Main Pad with Heart Cutout -->
    <path fill-rule="evenodd" clip-rule="evenodd" d="
      M30,135 
      C15,115 35,95 55,115 
      C75,95 125,95 145,115 
      C165,95 185,115 170,135 
      C155,160 135,180 100,170 
      C65,180 45,160 30,135 
      Z
      
      M100,155 
      C80,135 70,115 85,105 
      C95,100 100,115 100,115 
      C100,115 105,100 115,105 
      C130,115 120,135 100,155 
      Z" />
  </g>
</svg>
